<svg width="64" height="70" xmlns="http://www.w3.org/2000/svg">

 <g>
  <title>background</title>
  <rect fill="none" id="canvas_background" height="402" width="582" y="-1" x="-1"/>
 </g>
 <g>
  <title>Layer 1</title>
  <g id="svg_1">
   <path fill="#545454" id="svg_3" d="m16.830994,36.906868c0.174385,0.615555 0.270294,1.95805 0.270294,4.018692c0,1.767517 0.090101,3.066044 0.279016,3.889713c0.188915,0.820744 0.558029,1.515438 1.110247,2.075298c0.549313,0.556931 1.223597,0.961441 2.02286,1.204731c0.802168,0.240356 1.953104,0.360535 3.449903,0.360535l0.886452,0l0,-4.030415c-1.194532,0 -1.970545,-0.07621 -2.330936,-0.228634c-0.357487,-0.152424 -0.624878,-0.369331 -0.802168,-0.665382c-0.174385,-0.290192 -0.261578,-0.803154 -0.261578,-1.538883c0,-0.518826 -0.046501,-1.708897 -0.133694,-3.570217c-0.066847,-1.222317 -0.212168,-2.195473 -0.435961,-2.922417c-0.220886,-0.732803 -0.540592,-1.348358 -0.959114,-1.86132c-0.415617,-0.510029 -0.950396,-0.952641 -1.604336,-1.333698c0.741133,-0.48365 1.290443,-0.946781 1.653746,-1.39819c0.360394,-0.445543 0.656847,-1.011265 0.889359,-1.700102c0.229607,-0.688833 0.374928,-1.588717 0.433054,-2.696714c0.09882,-1.963911 0.154039,-3.300539 0.154039,-4.006962c0,-0.691767 0.084288,-1.184212 0.249952,-1.468536c0.168571,-0.284327 0.424335,-0.498306 0.773104,-0.641935c0.34877,-0.137768 1.142218,-0.208117 2.374533,-0.208117l0,-4.009895l-0.886452,0c-1.45611,0 -2.522762,0.102591 -3.197048,0.304846c-0.999804,0.301912 -1.76128,0.712282 -2.287342,1.231108c-0.523151,0.521755 -0.883547,1.210588 -1.084087,2.069435c-0.197636,0.852982 -0.293549,2.368418 -0.293549,4.531649c0,1.339565 -0.049406,2.265829 -0.139505,2.805172c-0.110443,0.715214 -0.316799,1.310249 -0.613251,1.788036c-0.302267,0.477789 -0.651036,0.811945 -1.066652,1.017132c-0.406897,0.199322 -1.014336,0.325363 -1.828128,0.372263l0,4.033348c1.023053,0.052761 1.77872,0.272602 2.275715,0.662453c0.491181,0.383987 0.860297,1.020058 1.101527,1.917007z"/>
   <path fill="#545454" id="svg_6" d="m41.927803,48.148064c1.005619,-0.304848 1.778725,-0.712284 2.304783,-1.234047c0.523151,-0.518822 0.880642,-1.213516 1.069553,-2.075294c0.188919,-0.864704 0.293549,-2.383068 0.293549,-4.552166c0,-1.324909 0.046505,-2.254101 0.1366,-2.793442c0.119164,-0.715218 0.328423,-1.310253 0.624878,-1.78804c0.293549,-0.471924 0.642315,-0.81488 1.055023,-1.014198c0.409805,-0.199322 1.014339,-0.32243 1.828129,-0.366402l-0.00581,0l0,-4.030415c-1.025963,-0.058626 -1.778721,-0.281395 -2.281525,-0.668316c-0.494091,-0.383989 -0.863205,-1.025923 -1.113159,-1.917011c-0.168571,-0.627279 -0.24995,-1.963913 -0.24995,-4.009897c0,-1.770451 -0.095909,-3.063114 -0.290638,-3.880922c-0.191822,-0.829533 -0.56094,-1.521297 -1.104435,-2.087021c-0.546406,-0.562794 -1.217785,-0.958506 -2.017044,-1.195934c-0.80508,-0.234497 -1.956017,-0.354675 -3.452812,-0.354675l-0.883545,0l0,4.004032c1.255566,0 2.066452,0.076212 2.423943,0.228636c0.3633,0.14949 0.613247,0.363468 0.749855,0.641933c0.139503,0.278465 0.209255,0.838326 0.220882,1.679585c0.061031,2.664469 0.156944,4.388021 0.276108,5.173586c0.188915,1.13731 0.546402,2.078228 1.063744,2.813961c0.380741,0.518826 0.976555,1.040583 1.799065,1.579926c-0.633595,0.363468 -1.148029,0.794357 -1.554928,1.283867c-0.409801,0.48365 -0.73241,1.081619 -0.970734,1.779247c-0.244141,0.703487 -0.398182,1.638546 -0.450493,2.796371c-0.090103,1.928738 -0.145321,3.236057 -0.145321,3.916096c-0.011627,0.685905 -0.093006,1.169556 -0.267391,1.456818c-0.177292,0.287254 -0.444683,0.504166 -0.80798,0.65659c-0.366211,0.15242 -1.145123,0.2257 -2.33675,0.2257l0,4.030415l0.889359,0c1.450294,0.00293 2.519852,-0.102589 3.197044,-0.298981z"/>
  </g>
 </g>
</svg>